<svg width="18" height="18" viewBox="0 0 18 18" fill="none" xmlns="http://www.w3.org/2000/svg">
<path fill-rule="evenodd" clip-rule="evenodd" d="M9.04329 0.0419922H8.95663C8.20746 0.0419922 7.58329 0.0419922 7.08829 0.108659C6.56496 0.178659 6.09246 0.333659 5.71329 0.712826C5.33329 1.09283 5.17829 1.56533 5.10829 2.08783C5.06079 2.44366 5.04663 3.29283 5.04329 4.02116C3.35829 4.07699 2.34579 4.27366 1.64329 4.97699C0.666626 5.95283 0.666626 7.52449 0.666626 10.667C0.666626 13.8095 0.666626 15.3812 1.64329 16.357C2.61996 17.3328 4.19079 17.3337 7.33329 17.3337H10.6666C13.8091 17.3337 15.3808 17.3337 16.3566 16.357C17.3325 15.3803 17.3333 13.8095 17.3333 10.667C17.3333 7.52449 17.3333 5.95283 16.3566 4.97699C15.6541 4.27366 14.6416 4.07699 12.9566 4.02199C12.9533 3.29283 12.94 2.44366 12.8916 2.08866C12.8216 1.56533 12.6666 1.09283 12.2866 0.713659C11.9075 0.333659 11.435 0.178659 10.9116 0.108659C10.4166 0.0419922 9.79163 0.0419922 9.04329 0.0419922ZM11.7066 4.00199C11.7025 3.29616 11.6908 2.53699 11.6533 2.25449C11.6008 1.87033 11.5116 1.70533 11.4033 1.59699C11.295 1.48866 11.13 1.39949 10.745 1.34699C10.3433 1.29366 9.80329 1.29199 8.99996 1.29199C8.19663 1.29199 7.65663 1.29366 7.25413 1.34783C6.86996 1.39949 6.70496 1.48866 6.59663 1.59783C6.48829 1.70699 6.39913 1.87033 6.34663 2.25449C6.30913 2.53783 6.29663 3.29616 6.29329 4.00199C6.61996 4.00033 6.96663 3.99977 7.33329 4.00033H10.6666C11.0344 4.00033 11.3811 4.00088 11.7066 4.00199ZM8.99996 6.70866C9.16572 6.70866 9.32469 6.77451 9.4419 6.89172C9.55911 7.00893 9.62496 7.1679 9.62496 7.33366V7.34199C10.5325 7.57033 11.2916 8.28616 11.2916 9.27783C11.2916 9.44359 11.2258 9.60256 11.1086 9.71977C10.9914 9.83698 10.8324 9.90283 10.6666 9.90283C10.5009 9.90283 10.3419 9.83698 10.2247 9.71977C10.1075 9.60256 10.0416 9.44359 10.0416 9.27783C10.0416 8.95783 9.68663 8.51449 8.99996 8.51449C8.31329 8.51449 7.95829 8.95783 7.95829 9.27783C7.95829 9.59783 8.31329 10.042 8.99996 10.042C10.1541 10.042 11.2916 10.842 11.2916 12.0562C11.2916 13.0478 10.5325 13.7628 9.62496 13.992V14.0003C9.62496 14.1661 9.55911 14.3251 9.4419 14.4423C9.32469 14.5595 9.16572 14.6253 8.99996 14.6253C8.8342 14.6253 8.67523 14.5595 8.55802 14.4423C8.44081 14.3251 8.37496 14.1661 8.37496 14.0003V13.992C7.46746 13.7637 6.70829 13.0478 6.70829 12.0562C6.70829 11.8904 6.77414 11.7314 6.89135 11.6142C7.00856 11.497 7.16753 11.4312 7.33329 11.4312C7.49905 11.4312 7.65802 11.497 7.77523 11.6142C7.89244 11.7314 7.95829 11.8904 7.95829 12.0562C7.95829 12.3762 8.31329 12.8195 8.99996 12.8195C9.68663 12.8195 10.0416 12.3762 10.0416 12.0562C10.0416 11.7362 9.68663 11.292 8.99996 11.292C7.84579 11.292 6.70829 10.492 6.70829 9.27783C6.70829 8.28616 7.46746 7.57033 8.37496 7.34199V7.33366C8.37496 7.1679 8.44081 7.00893 8.55802 6.89172C8.67523 6.77451 8.8342 6.70866 8.99996 6.70866Z" fill="#004A39"/>
</svg>
