<svg width="16" height="20" viewBox="0 0 16 20" fill="none" xmlns="http://www.w3.org/2000/svg">
<path d="M8 0.833008L0.5 4.16634V9.16634C0.5 13.7913 3.7 18.1163 8 19.1663C12.3 18.1163 15.5 13.7913 15.5 9.16634V4.16634L8 0.833008ZM8 5.83301C9.16667 5.83301 10.3333 6.74967 10.3333 7.91634V9.16634C10.8333 9.16634 11.3333 9.66634 11.3333 10.2497V13.1663C11.3333 13.6663 10.8333 14.1663 10.25 14.1663H5.66667C5.16667 14.1663 4.66667 13.6663 4.66667 13.083V10.1663C4.66667 9.66634 5.16667 9.16634 5.66667 9.16634V7.91634C5.66667 6.74967 6.83333 5.83301 8 5.83301ZM8 6.83301C7.33333 6.83301 6.75 7.24967 6.75 7.91634V9.16634H9.25V7.91634C9.25 7.24967 8.66667 6.83301 8 6.83301Z" fill="#004A39"/>
</svg>
