<svg width="20" height="20" viewBox="0 0 20 20" fill="none" xmlns="http://www.w3.org/2000/svg">
<path d="M9.16677 4.99992H11.6668L14.4084 2.24992C14.4859 2.17181 14.5781 2.10981 14.6796 2.06751C14.7812 2.0252 14.8901 2.00342 15.0001 2.00342C15.1101 2.00342 15.219 2.0252 15.3206 2.06751C15.4221 2.10981 15.5143 2.17181 15.5918 2.24992L17.7418 4.40825C17.897 4.56439 17.9841 4.77559 17.9841 4.99575C17.9841 5.2159 17.897 5.42711 17.7418 5.58325L15.8334 7.49992H9.16677V9.16658C9.16677 9.3876 9.07898 9.59956 8.9227 9.75584C8.76642 9.91212 8.55445 9.99992 8.33344 9.99992C8.11243 9.99992 7.90047 9.91212 7.74418 9.75584C7.5879 9.59956 7.50011 9.3876 7.50011 9.16658V6.66658C7.50011 6.22456 7.6757 5.80063 7.98826 5.48807C8.30082 5.17551 8.72475 4.99992 9.16677 4.99992ZM4.16677 9.16658V12.4999L2.25844 14.4083C2.10323 14.5644 2.01611 14.7756 2.01611 14.9958C2.01611 15.2159 2.10323 15.4271 2.25844 15.5833L4.40844 17.7416C4.48591 17.8197 4.57808 17.8817 4.67963 17.924C4.78118 17.9663 4.8901 17.9881 5.00011 17.9881C5.11012 17.9881 5.21904 17.9663 5.32059 17.924C5.42214 17.8817 5.5143 17.8197 5.59177 17.7416L9.16677 14.1666H12.5001C12.7211 14.1666 12.9331 14.0788 13.0894 13.9225C13.2456 13.7662 13.3334 13.5543 13.3334 13.3333V12.4999H14.1668C14.3878 12.4999 14.5997 12.4121 14.756 12.2558C14.9123 12.0996 15.0001 11.8876 15.0001 11.6666V10.8333H15.8334C16.0545 10.8333 16.2664 10.7455 16.4227 10.5892C16.579 10.4329 16.6668 10.2209 16.6668 9.99992V9.16658H10.8334V9.99992C10.8334 10.4419 10.6578 10.8659 10.3453 11.1784C10.0327 11.491 9.6088 11.6666 9.16677 11.6666H7.50011C7.05808 11.6666 6.63416 11.491 6.3216 11.1784C6.00904 10.8659 5.83344 10.4419 5.83344 9.99992V7.49992L4.16677 9.16658Z" fill="#004A39"/>
</svg>
