<svg width="20" height="20" viewBox="0 0 20 20" fill="none" xmlns="http://www.w3.org/2000/svg">
<path d="M4.16675 2.5H5.83341L8.33341 4.16667L5.83341 5.83333V6.94167C7.05841 6.76667 8.48341 6.66667 10.0001 6.66667C11.5167 6.66667 12.9417 6.76667 14.1667 6.94167V2.5H15.8334L18.3334 4.16667L15.8334 5.83333V7.25833C17.3751 7.64167 18.3334 8.16667 18.3334 8.75C18.3334 9.9 14.5834 10.8333 10.0001 10.8333C5.41675 10.8333 1.66675 9.9 1.66675 8.75C1.66675 8.16667 2.62508 7.64167 4.16675 7.25833V2.5ZM10.0001 7.91667C7.24175 7.91667 5.83341 8.05833 5.83341 8.75C5.83341 9.44167 7.24175 9.58333 10.0001 9.58333C12.7584 9.58333 14.1667 9.44167 14.1667 8.75C14.1667 8.05833 12.7584 7.91667 10.0001 7.91667ZM10.0001 12.2917C13.1751 12.2917 16.0001 11.7333 17.8334 10.875L16.6667 17.5H12.5001V15.8333C12.5001 15.3913 12.3245 14.9674 12.0119 14.6548C11.6994 14.3423 11.2754 14.1667 10.8334 14.1667H9.16675C8.72472 14.1667 8.3008 14.3423 7.98824 14.6548C7.67568 14.9674 7.50008 15.3913 7.50008 15.8333V17.5H3.33341L2.16675 10.875C4.00008 11.7333 6.82508 12.2917 10.0001 12.2917Z" fill="#004A39"/>
</svg>
